<svg width="200" height="200" viewBox="0 0 200 200" xmlns="http://www.w3.org/2000/svg">
  <defs>
    <filter id="shadow" x="-20%" y="-20%" width="140%" height="140%">
      <feDropShadow dx="3" dy="3" stdDeviation="5" flood-color="#0ea5e9" flood-opacity="0.6"/>
      <feDropShadow dx="-3" dy="-3" stdDeviation="5" flood-color="#0ea5e9" flood-opacity="0.4"/>
    </filter>
    <linearGradient id="tubeGradient" x1="0%" y1="0%" x2="100%" y2="100%">
      <stop offset="0%" stop-color="#22d3ee"/>
      <stop offset="100%" stop-color="#0ea5e9"/>
    </linearGradient>
  </defs>
  
  <circle cx="100" cy="100" r="90" fill="#0f172a"/>
  
  <path d="M100,30 C120,30 140,40 150,60 C160,80 160,100 150,120 C140,140 120,150 100,150 C80,150 60,140 50,120 C40,100 40,80 50,60 C60,40 80,30 100,30 Z" 
        fill="url(#tubeGradient)" 
        filter="url(#shadow)" 
        stroke="#0f172a" 
        stroke-width="3"/>
        
  <path d="M90,50 L110,50 L115,70 L85,70 Z" fill="#0f172a"/>
  <path d="M85,70 L115,70 L120,90 L80,90 Z" fill="#1e293b"/>
  <path d="M80,90 L120,90 L125,110 L75,110 Z" fill="#334155"/>
  <path d="M75,110 L125,110 L130,130 L70,130 Z" fill="#475569"/>
  
  <ellipse cx="100" cy="140" rx="30" ry="10" fill="#64748b" opacity="0.8"/>
  <circle cx="100" cy="60" r="8" fill="#f8fafc"/>
  <circle cx="100" cy="60" r="4" fill="#0ea5e9"/>
</svg>